<svg width="1606" height="1606" viewBox="0 0 1606 1606" fill="none" xmlns="http://www.w3.org/2000/svg">
<rect width="1606" height="1606" rx="360" fill="#4DE3CC"/>
<path d="M290 340H597.2C586 356.8 580.4 376 580.4 398.4C580.4 406.4 581.2 415.2 582.8 424C584.4 437.6 589.2 452 596.4 468C603.6 484.8 614 507.2 629.2 536C642 509.6 651.6 487.2 658 470.4C664.4 453.6 668.4 437.6 670 424C671.6 413.6 672.4 404 672.4 396C672.4 376 667.6 356.8 658 340H844.4L617.2 764H517.2L290 340Z" fill="#121212"/>
<path d="M1061.42 772C1011.83 772 969.425 762.4 933.425 744C897.425 725.6 870.225 699.2 851.825 666.4C833.425 633.6 823.825 596 823.825 554.4C823.825 510.4 834.225 471.2 854.225 436C874.225 400.8 902.225 373.6 937.425 353.6C972.625 333.6 1011.83 324 1055.83 324C1098.23 324 1135.03 332 1167.83 348.8C1199.83 365.6 1224.62 389.6 1242.23 419.2C1259.83 448.8 1268.63 483.2 1268.63 520.8H1022.23C1025.43 552 1039.83 576 1064.62 592.8C1089.42 610.4 1122.22 619.2 1163.03 619.2C1184.62 619.2 1204.63 616.8 1222.23 611.2C1239.83 605.6 1255.03 599.2 1267.03 590.4C1263.03 645.6 1243.83 689.6 1209.43 722.4C1175.03 755.2 1126.23 772 1061.42 772ZM1098.23 477.6V472.8C1098.23 410.4 1085.42 379.2 1059.83 379.2C1035.03 379.2 1022.23 410.4 1022.23 472.8V477.6H1098.23Z" fill="#121212"/>
<path d="M318 1380C330 1366.4 346 1349.6 364.4 1331.2C382.8 1312 400.4 1293.6 418.8 1275.2C454 1240.8 479.6 1215.2 495.6 1198.4L296.4 820H602.8C590.8 835.2 585.2 855.2 585.2 878.4C585.2 886.4 586 895.2 587.6 904C590 927.2 605.2 966.4 633.2 1022.4C647.6 989.6 658 964.8 665.2 948C671.6 931.2 675.6 916.8 676.4 904.8C678 895.2 678.8 886.4 678.8 877.6C678.8 857.6 674 838.4 663.6 820H850L558.8 1380H318Z" fill="#121212"/>
<path d="M1063.84 996C1061.44 976 1051.84 960 1036.64 948C1020.64 936.8 999.844 931.2 974.244 931.2C916.644 931.2 872.644 949.6 841.444 986.4C847.044 928 871.044 883.2 912.644 851.2C954.244 820 1007.84 804 1072.64 804C1116.64 804 1154.24 812 1187.04 827.2C1219.04 843.2 1243.84 865.6 1261.44 895.2C1279.04 924.8 1287.84 959.2 1287.84 999.2V1236H1063.84V1186.4C1043.04 1230.4 1004.64 1252 949.444 1252C913.444 1252 883.844 1241.6 861.444 1219.2C838.244 1197.6 827.044 1171.2 827.044 1138.4C827.044 1100 843.044 1068.8 874.244 1044.8C905.444 1020.8 947.844 1006.4 1000.64 1001.6L1063.84 996ZM1003.84 1100.8C1003.84 1114.4 1007.84 1125.6 1015.84 1135.2C1023.04 1145.6 1033.44 1150.4 1045.44 1150.4C1052.64 1150.4 1059.04 1148.8 1063.84 1144.8V1037.6L1055.84 1038.4C1021.44 1049.6 1003.84 1070.4 1003.84 1100.8Z" fill="#121212"/>
</svg>
