<svg width="47" height="27" viewBox="0 0 47 27" fill="none" xmlns="http://www.w3.org/2000/svg">
<path d="M12.168 26.64C9.54 26.64 7.308 26.064 5.472 24.912C3.636 23.796 2.268 22.212 1.368 20.196C0.468 18.216 0 15.912 0 13.32C0 10.728 0.468 8.424 1.368 6.408C2.268 4.428 3.636 2.844 5.472 1.692C7.308 0.575999 9.54 0 12.168 0C14.796 0 17.028 0.575999 18.864 1.692C20.7 2.844 22.068 4.428 22.968 6.408C23.868 8.424 24.336 10.728 24.336 13.32C24.336 15.912 23.868 18.216 22.968 20.196C22.068 22.212 20.7 23.796 18.864 24.912C17.028 26.064 14.796 26.64 12.168 26.64ZM12.168 22.176C12.78 22.176 13.248 21.924 13.572 21.384C13.896 20.844 14.148 19.944 14.328 18.648C14.472 17.388 14.544 15.588 14.544 13.32C14.544 11.052 14.472 9.252 14.328 7.956C14.148 6.696 13.896 5.796 13.572 5.256C13.248 4.716 12.78 4.464 12.168 4.464C11.592 4.464 11.124 4.716 10.8 5.256C10.476 5.796 10.224 6.696 10.08 7.956C9.9 9.252 9.828 11.052 9.828 13.32C9.828 15.588 9.9 17.388 10.08 18.648C10.224 19.944 10.476 20.844 10.8 21.384C11.124 21.924 11.592 22.176 12.168 22.176Z" fill="#764FFF"/>
<path d="M33.9051 26.64C32.1411 26.64 30.6651 26.46 29.4051 26.136C28.1451 25.776 26.9211 25.2 25.6971 24.408V17.028C26.5251 18.504 27.5691 19.764 28.7931 20.808C30.0171 21.852 31.2771 22.356 32.6091 22.356C33.9411 22.356 35.0211 21.96 35.8491 21.204C36.6771 20.448 37.1091 19.404 37.1091 18.072C37.1091 17.316 36.8931 16.596 36.4971 15.912C36.0651 15.228 35.4171 14.688 34.5531 14.256C33.6891 13.824 32.6451 13.608 31.4211 13.608C30.5931 13.608 29.9091 13.644 29.4051 13.68C28.9011 13.752 28.3251 13.896 27.6411 14.076L35.0931 7.272H25.3371V0.719999H46.1451L37.8291 8.928C40.3131 9.504 42.2571 10.584 43.5891 12.132C44.9211 13.716 45.5691 15.48 45.5691 17.46C45.5691 19.296 45.0651 20.88 44.0931 22.284C43.1211 23.688 41.7171 24.732 39.9531 25.488C38.1891 26.28 36.1731 26.64 33.9051 26.64Z" fill="#764FFF"/>
</svg>
