<svg width="48" height="27" viewBox="0 0 48 27" fill="none" xmlns="http://www.w3.org/2000/svg">
<path d="M12.168 26.64C9.54 26.64 7.308 26.064 5.472 24.912C3.636 23.796 2.268 22.212 1.368 20.196C0.468 18.216 0 15.912 0 13.32C0 10.728 0.468 8.424 1.368 6.408C2.268 4.428 3.636 2.844 5.472 1.692C7.308 0.575999 9.54 0 12.168 0C14.796 0 17.028 0.575999 18.864 1.692C20.7 2.844 22.068 4.428 22.968 6.408C23.868 8.424 24.336 10.728 24.336 13.32C24.336 15.912 23.868 18.216 22.968 20.196C22.068 22.212 20.7 23.796 18.864 24.912C17.028 26.064 14.796 26.64 12.168 26.64ZM12.168 22.176C12.78 22.176 13.248 21.924 13.572 21.384C13.896 20.844 14.148 19.944 14.328 18.648C14.472 17.388 14.544 15.588 14.544 13.32C14.544 11.052 14.472 9.252 14.328 7.956C14.148 6.696 13.896 5.796 13.572 5.256C13.248 4.716 12.78 4.464 12.168 4.464C11.592 4.464 11.124 4.716 10.8 5.256C10.476 5.796 10.224 6.696 10.08 7.956C9.9 9.252 9.828 11.052 9.828 13.32C9.828 15.588 9.9 17.388 10.08 18.648C10.224 19.944 10.476 20.844 10.8 21.384C11.124 21.924 11.592 22.176 12.168 22.176Z" fill="#764FFF"/>
<path d="M36.2409 20.484H24.3249V17.604L40.8849 0.719999H46.3209V15.3H47.7609V20.484H46.3209V25.92H36.2409V20.484ZM36.2409 15.3V9.612L30.8049 15.3H36.2409Z" fill="#764FFF"/>
</svg>
