<svg width="118" height="35" viewBox="0 0 118 35" fill="none" xmlns="http://www.w3.org/2000/svg">
<path d="M0 0.959999H18.432C17.76 1.968 17.424 3.12 17.424 4.464C17.424 4.944 17.472 5.472 17.568 6C17.664 6.816 17.952 7.68 18.384 8.64C18.816 9.648 19.44 10.992 20.352 12.72C21.12 11.136 21.696 9.792 22.08 8.784C22.464 7.776 22.704 6.816 22.8 6C22.896 5.376 22.944 4.8 22.944 4.32C22.944 3.12 22.656 1.968 22.08 0.959999H33.264L19.632 26.4H13.632L0 0.959999Z" fill="#F5F5F5"/>
<path d="M46.3935 26.88C43.4175 26.88 40.8735 26.304 38.7135 25.2C36.5535 24.096 34.9215 22.512 33.8175 20.544C32.7135 18.576 32.1375 16.32 32.1375 13.824C32.1375 11.184 32.7615 8.832 33.9615 6.72C35.1615 4.608 36.8415 2.976 38.9535 1.776C41.0655 0.576001 43.4175 0 46.0575 0C48.6015 0 50.8095 0.48 52.7775 1.488C54.6975 2.496 56.1855 3.936 57.2415 5.712C58.2975 7.488 58.8255 9.552 58.8255 11.808H44.0415C44.2335 13.68 45.0975 15.12 46.5855 16.128C48.0735 17.184 50.0415 17.712 52.4895 17.712C53.7855 17.712 54.9855 17.568 56.0415 17.232C57.0975 16.896 58.0095 16.512 58.7295 15.984C58.4895 19.296 57.3375 21.936 55.2735 23.904C53.2095 25.872 50.2815 26.88 46.3935 26.88ZM48.6015 9.216V8.928C48.6015 5.184 47.8335 3.312 46.2975 3.312C44.8095 3.312 44.0415 5.184 44.0415 8.928V9.216H48.6015Z" fill="#F5F5F5"/>
<path d="M59.6175 34.56C60.3375 33.744 61.2975 32.736 62.4015 31.632C63.5055 30.48 64.5615 29.376 65.6655 28.272C67.7775 26.208 69.3135 24.672 70.2735 23.664L58.3215 0.959999H76.7055C75.9855 1.872 75.6495 3.072 75.6495 4.464C75.6495 4.944 75.6975 5.472 75.7935 6C75.9375 7.392 76.8495 9.744 78.5295 13.104C79.3935 11.136 80.0175 9.648 80.4495 8.64C80.8335 7.632 81.0735 6.768 81.1215 6.048C81.2175 5.472 81.2655 4.944 81.2655 4.416C81.2655 3.216 80.9775 2.064 80.3535 0.959999H91.5375L74.0655 34.56H59.6175Z" fill="#F5F5F5"/>
<path d="M104.476 11.52C104.332 10.32 103.756 9.36 102.844 8.64C101.884 7.968 100.636 7.632 99.1001 7.632C95.6441 7.632 93.0041 8.736 91.1321 10.944C91.4681 7.44 92.9081 4.752 95.4041 2.832C97.9001 0.959999 101.116 0 105.004 0C107.644 0 109.9 0.48 111.868 1.392C113.788 2.352 115.276 3.696 116.332 5.472C117.388 7.248 117.916 9.312 117.916 11.712V25.92H104.476V22.944C103.228 25.584 100.924 26.88 97.6121 26.88C95.4521 26.88 93.6761 26.256 92.3321 24.912C90.9401 23.616 90.2681 22.032 90.2681 20.064C90.2681 17.76 91.2281 15.888 93.1001 14.448C94.9721 13.008 97.5161 12.144 100.684 11.856L104.476 11.52ZM100.876 17.808C100.876 18.624 101.116 19.296 101.596 19.872C102.028 20.496 102.652 20.784 103.372 20.784C103.804 20.784 104.188 20.688 104.476 20.448V14.016L103.996 14.064C101.932 14.736 100.876 15.984 100.876 17.808Z" fill="#F5F5F5"/>
</svg>
